<?xml version="1.0" encoding="utf-8"?>
<!-- Generator: Adobe Illustrator 24.3.0, SVG Export Plug-In . SVG Version: 6.00 Build 0)  -->
<svg version="1.1" id="Слой_1" xmlns="http://www.w3.org/2000/svg" xmlns:xlink="http://www.w3.org/1999/xlink" x="0px" y="0px"
	 viewBox="0 0 139.3 74.1" style="enable-background:new 0 0 139.3 74.1;" xml:space="preserve">
<style type="text/css">
	.st0{fill:#F1FAFF;filter:url(#Adobe_OpacityMaskFilter);}
	.st1{mask:url(#mask0_1_);}
	.st2{fill:#E1F1F9;}
	.st3{fill:#EEF9FF;}
	.st4{fill:#CAE3F1;}
	.st5{fill:url(#SVGID_1_);}
	.st6{fill:#4DA19C;}
</style>
<defs>
	<filter id="Adobe_OpacityMaskFilter" filterUnits="userSpaceOnUse" x="-72.5" y="-222.2" width="284.3" height="288.5">
		<feColorMatrix  type="matrix" values="1 0 0 0 0  0 1 0 0 0  0 0 1 0 0  0 0 0 1 0"/>
	</filter>
</defs>
<mask maskUnits="userSpaceOnUse" x="-72.5" y="-222.2" width="284.3" height="288.5" id="mask0_1_">
	<rect x="-133.4" y="27.1" class="st0" width="421" height="39"/>
</mask>
<g class="st1">
	<path class="st2" d="M23.6-191.6c17.2-40.8,75-40.8,92.1,0l13.6,32.4c5.6,13.4,16.8,23.6,30.6,28.1l17.3,5.6
		c46.1,15,46.1,80.1,0,95.1L160-24.8c-13.8,4.5-25,14.8-30.6,28.1l-13.6,32.4c-17.2,40.8-75,40.8-92.1,0L9.9,3.4
		C4.3-10-6.9-20.3-20.7-24.8L-38-30.4c-46.1-15-46.1-80.1,0-95.1l17.3-5.6c13.8-4.5,25-14.8,30.6-28.1L23.6-191.6z"/>
</g>
<path class="st3" d="M39.8-51.6c10.6-27.1,49-27.1,59.6,0l0.7,1.8c3.3,8.4,10,14.9,18.5,17.9c27.5,9.6,27.5,48.5,0,58.2
	c-8.5,3-15.2,9.5-18.5,17.9l-0.7,1.8c-10.6,27.1-49,27.1-59.6,0L39.1,44c-3.3-8.4-10-14.9-18.5-17.9c-27.5-9.6-27.5-48.5,0-58.2
	c8.5-3,15.2-9.5,18.5-17.9L39.8-51.6z"/>
<g>
	<ellipse class="st4" cx="69.6" cy="32.1" rx="23" ry="24"/>
</g>
<linearGradient id="SVGID_1_" gradientUnits="userSpaceOnUse" x1="69.6345" y1="116.0769" x2="69.6345" y2="85.0769" gradientTransform="matrix(1 0 0 -1 0 140.1539)">
	<stop  offset="0" style="stop-color:#FFFFFF"/>
	<stop  offset="1" style="stop-color:#EFF9FF"/>
</linearGradient>
<circle class="st5" cx="69.6" cy="31.1" r="24"/>
<path class="st6" d="M70.7,35.9l4.6-6.7c0.2-0.3,0.3-0.6,0.3-0.9c0-0.5-0.4-0.8-1.1-0.8h-9.9c-0.7,0-1.1,0.3-1.1,0.8
	c0,0.3,0.1,0.6,0.3,0.9l4.6,6.7c0.3,0.4,0.7,0.7,1.1,0.7C70.1,36.6,70.5,36.3,70.7,35.9z"/>
</svg>
