<?xml version="1.0" encoding="utf-8"?>
<!-- Generator: Adobe Illustrator 24.3.0, SVG Export Plug-In . SVG Version: 6.00 Build 0)  -->
<svg version="1.1" id="Слой_1" xmlns="http://www.w3.org/2000/svg" xmlns:xlink="http://www.w3.org/1999/xlink" x="0px" y="0px"
	 viewBox="0 0 80 84" style="enable-background:new 0 0 80 84;" xml:space="preserve">
<style type="text/css">
	.st0{fill:#5A64B0;}
	.st1{fill:url(#SVGID_1_);}
	.st2{fill:url(#SVGID_2_);}
	.st3{fill:#FFFFFF;}
</style>
<g>
	<ellipse class="st0" cx="40" cy="42" rx="40" ry="42"/>
	
		<linearGradient id="SVGID_1_" gradientUnits="userSpaceOnUse" x1="40" y1="39.825" x2="40" y2="12" gradientTransform="matrix(1 0 0 -1 0 96)">
		<stop  offset="0" style="stop-color:#8793F3"/>
		<stop  offset="1" style="stop-color:#5562CB"/>
	</linearGradient>
	<ellipse class="st1" cx="40" cy="42" rx="40" ry="42"/>
</g>
<linearGradient id="SVGID_2_" gradientUnits="userSpaceOnUse" x1="40" y1="96" x2="40" y2="16" gradientTransform="matrix(1 0 0 -1 0 96)">
	<stop  offset="0" style="stop-color:#ABB5FF"/>
	<stop  offset="1" style="stop-color:#7986EC"/>
</linearGradient>
<circle class="st2" cx="40" cy="40" r="40"/>
<path class="st3" d="M46.1,38.5l-8.9-6.1c-0.4-0.3-0.8-0.4-1.2-0.4c-0.7,0-1.1,0.5-1.1,1.4v13.1c0,0.9,0.4,1.4,1.1,1.4
	c0.3,0,0.8-0.1,1.2-0.4l8.9-6.1c0.6-0.4,0.9-0.9,0.9-1.5C47,39.4,46.7,38.9,46.1,38.5z"/>
</svg>
